<?xml version="1.0" standalone="no"?>
<!DOCTYPE svg PUBLIC "-//W3C//DTD SVG 20010904//EN"
 "http://www.w3.org/TR/2001/REC-SVG-20010904/DTD/svg10.dtd">
<svg version="1.0" xmlns="http://www.w3.org/2000/svg"
 width="520.000000pt" height="520.000000pt" viewBox="0 0 520.000000 520.000000"
 preserveAspectRatio="xMidYMid meet">
<metadata>
Created by potrace 1.11, written by Peter Selinger 2001-2013
</metadata>
<g transform="translate(0.000000,520.000000) scale(0.100000,-0.100000)"
fill="#000000" stroke="none">
<path d="M760 3597 c0 -3 -16 -56 -36 -118 -19 -63 -39 -127 -44 -144 -4 -16
-45 -149 -90 -295 -45 -146 -90 -292 -100 -325 -10 -33 -79 -259 -154 -502
-75 -243 -136 -447 -136 -452 0 -7 45 -11 128 -11 l129 0 57 203 c32 111 62
217 67 235 l11 32 293 0 294 0 9 -32 c5 -18 35 -124 67 -235 l58 -203 133 0
133 0 -24 73 c-13 39 -37 117 -54 172 -16 55 -50 165 -74 245 -25 80 -56 183
-71 230 -14 47 -62 204 -107 350 -44 146 -82 272 -84 280 -5 18 -24 83 -97
320 l-54 175 -127 3 c-70 1 -127 1 -127 -1z m245 -772 c59 -209 110 -386 112
-392 4 -10 -46 -13 -232 -13 -222 0 -237 1 -230 18 4 9 8 24 10 32 2 8 51 180
109 383 58 202 106 371 106 375 1 26 30 -67 125 -403z"/>
<path d="M2786 3583 c-7 -24 -127 -422 -186 -618 -67 -221 -230 -753 -297
-970 -30 -99 -59 -193 -63 -210 -5 -16 -14 -46 -20 -65 -6 -19 -15 -48 -20
-65 -4 -16 -11 -38 -15 -47 -7 -17 2 -18 96 -18 l104 0 29 98 c16 53 40 133
54 177 13 44 32 107 42 140 30 99 229 751 267 875 19 63 44 143 54 178 10 34
28 92 40 130 11 37 22 74 24 82 2 8 24 80 49 160 25 80 46 151 46 158 0 9 -26
12 -99 12 -86 0 -100 -2 -105 -17z"/>
<path d="M3800 3598 c-1 -4 -1 -1819 -1 -1835 1 -10 34 -13 130 -13 l128 0 1
393 c0 215 1 400 1 410 1 16 25 17 350 17 270 0 350 -3 353 -12 2 -7 4 -192 4
-410 l-1 -398 127 0 c115 0 128 2 129 18 0 23 0 1781 0 1810 -1 22 -3 22 -129
22 l-127 0 0 -412 0 -413 -353 -3 c-278 -2 -352 0 -353 10 0 7 -1 194 -1 416
l-1 402 -128 0 c-71 0 -129 -1 -129 -2z"/>
</g>
</svg>
