<?xml version="1.0" encoding="utf-8"?>
<svg version="1.1" xmlns="http://www.w3.org/2000/svg" xmlns:xlink="http://www.w3.org/1999/xlink" x="0px" y="0px"
   viewBox="0 0 538.5 144.1" style="enable-background:new 0 0 538.5 144.1;" xml:space="preserve">
<style type="text/css">
  .st0{fill:none;stroke:#2c2c29;stroke-width:0.5;stroke-miterlimit:10;}
  .st1{fill:none;stroke:#2c2c29;stroke-width:1;stroke-miterlimit:10;}
  .st2{fill:none;stroke:#2c2c29;stroke-width:0.75;stroke-miterlimit:10;}
  .st3{fill:#FFFFFF;stroke:#2c2c29;stroke-width:0.75;stroke-miterlimit:10;}
</style>
<polyline class="st0" points="293.9,39.9 293.9,21.4 317.2,8.1 341.2,21.4 341.2,39.9 "/>
<path class="st0" d="M183,39.9V21.4l21.3-13.3c0,0,21.3,11.6,22,13.3s0,18.6,0,18.6"/>
<polyline class="st0" points="135.1,39.9 135.1,21.4 157.6,8.1 180.7,21.4 180.7,39.9 "/>
<path class="st0" d="M364.1,39.9V21.4c0,0,20.7-12.5,22.5-13.3s23.1,13.3,23.1,13.3v18.6"/>
<path class="st1" d="M0,141.9c49.5,1.4,99.3,2.7,148.3-3.4c31-3.9,61.2-10.7,91.9-15.8c97.7-16.4,198.5-15.8,298.3-13.9"/>
<path class="st0" d="M121.3,82.3c99.7,2.4,199.4,2.9,299.1,1.3"/>
<path class="st1" d="M420.4,45c-99.7-2.4-199.4-2.9-299.1-1.3"/>
<path class="st0" d="M120.9,63.5c92.7-3.3,206.9,0.5,299.9,0.2"/>
<path class="st0" d="M122.5,105.8c0,0,272.4-2.3,293.6-0.8"/>
<path class="st2" d="M234.8,32.8c0.6,2.2,0.9,4.4,0.9,6.7c0,0.5-0.1,0.9-0.3,1.3c-0.3,0.4-0.8,0.6-1.3,0.3v-4.7c0-1-0.7-1.9-0.6-2.9
  C233.5,32.8,234.4,31.3,234.8,32.8z"/>
<path class="st2" d="M238.8,32.8c0.6,2.2,0.9,4.4,0.9,6.7c0,0.5-0.1,0.9-0.3,1.3c-0.3,0.4-0.8,0.5-1.3,0.3v-4.7c0-1-0.7-1.9-0.6-2.9
  C237.6,32.8,238.5,31.3,238.8,32.8z"/>
<path class="st2" d="M429.1,97.7c0.6,2.2,0.9,4.4,0.9,6.7c0,0.4-0.1,0.9-0.3,1.3c-0.3,0.4-0.8,0.5-1.3,0.3v-4.7
  c0-1.1-0.7-1.9-0.6-2.9C427.8,97.7,428.7,96.3,429.1,97.7z"/>
<path class="st2" d="M133,129.8c0.6,2.2,0.9,4.4,0.9,6.7c0,0.5-0.1,0.9-0.3,1.3c-0.3,0.4-0.8,0.6-1.3,0.3v-4.7
  c0-1.1-0.7-1.9-0.6-2.9C131.7,129.8,132.6,128.4,133,129.8z"/>
<path class="st2" d="M101,132.6c0.6,2.2,0.9,4.4,0.9,6.7c0,0.5-0.1,0.9-0.3,1.3c-0.3,0.4-0.8,0.6-1.3,0.3v-4.7c0-1-0.7-1.9-0.6-2.9
  C99.7,132.6,100.6,131.1,101,132.6z"/>
<path class="st2" d="M109.2,131.6c0.6,2.2,0.9,4.4,0.9,6.7c0,0.5-0.1,0.9-0.3,1.3c-0.3,0.4-0.8,0.5-1.3,0.3v-4.7
  c0-1-0.7-1.9-0.6-2.9C107.9,131.6,108.8,130.1,109.2,131.6z"/>
<path class="st2" d="M32.9,77.3c-1,5.7-0.5,11.6,0.2,17.3l1.5,15.1c0,1.5,0.5,2.9,1.3,4.2c1.3,1.6,3.5,2,5.3,2.7s3.7,2.7,3,4.6
  c3.3,1.6,6.7-3.4,10.2-2.5c1.2,0.4,2.1,1.4,3.3,1.9c2.4,1,5.2-0.4,7-2.3c1.8-1.9,3.2-4.2,5.4-5.6c1.8-1.1,3.9-1.5,5.7-2.6
  c4.1-2.4,5.5-7.7,6.4-12.4c1.2-5.3,2-10.7,2.3-16.1c0.3-5.5-0.8-10.9-3.3-15.8c-1.9-3.3-4.4-6.4-7.3-8.9c-3.2-3-6.8-5.9-11-7.2
  c-6.9-2.3-14.5-0.5-18.6,5.4C39.5,62.1,34.5,68.8,32.9,77.3z"/>
<path class="st2" d="M60,121.5c-1.5,7.1,0.6,14.8-1.3,21.8"/>
<path class="st2" d="M446.9,83.7c1,0.2,2,0.2,3,0.1c3.1-0.4,6-2,8.1-4.3c2.1-2.3,3.8-4.9,5.2-7.8c3.4-6.4,6.1-13.1,8.3-20
  c0.6-1.5,0.8-3.2,0.4-4.8c-0.8-2.2-3.3-3.3-5.2-4.6c-7-4.6-9.5-12.9-17.6-16.3c-7.2-3-12.2,1-16.9,6.5c-2.7,3.3-6.5,7.4-6,12
  c0.2,2,1.2,3.8,1.5,5.7c0.5,2.9-0.5,5.8-0.7,8.8c-0.6,7.9,4.7,15.2,10.9,20.1c2,1.6,4.3,3,6.7,3.9c3,1.1,2.7,2.6,3.1,5.8
  c0.7,5.7,0.6,11.6-0.4,17.3"/>
<path class="st3" d="M348.4,110.8l-1-28.8c-0.1-1.7-0.8-4.7-0.1-6.3s2.2-1.4,3.6-1.9c3.7-1.3,7.1-3.4,10-6c3.3-2.8,5.6-6.6,6.7-10.8
  c1.2-5.7-0.7-11.6-0.2-17.4c0.4-5.1,2.7-10.1,2-15.1c-0.7-5.5-4.7-10.1-9.6-12.6c-4.7-2.3-11.5-3.6-16.8-2.5s-9.8,5.9-12.9,9.8
  c-3.1,4.1-5.7,8.4-8,13c-1.5,2.7-2.9,5.6-3,8.7c0,3.5,1.8,6.8,3.8,9.7c3.4,4.9,7.3,9.4,11.8,13.3c2.2,2,4.6,3.8,6.1,6.4
  c0.5,1.2,1.3,2.3,2.2,3.3c1.2,0.9,2.6,1.3,4.1,1.1"/>
<path class="st3" d="M299.4,39.9c-3.5-1-5.3,3.1-8.3,5c-3.4,2.1-6.9,4.4-8.6,8c-1.5,3.2-1.4,6.9-1.1,10.4c0.4,5.3,1.1,10.5,1.7,15.8
  c0.2,1.7,0.5,3.6,1.6,4.9s5.2,7.6,6.9,8c7.4,1.9,12.6-2.4,20.1-1.2c0.6,0.1,1.2,0.1,1.7,0c1.2-0.4,1.7-1.7,2-2.9
  c1.7-5.4,3-10.9,3.9-16.5c0.9-5.6,0.4-11.3-1.4-16.7c-1.2-3.4-3.2-6.7-3.2-10.3c0-1.8,0.4-3.9-0.7-5.3c-0.8-0.8-1.8-1.3-2.9-1.4
  c-4.2-0.9-8.6-0.3-12.4,1.7"/>
<path class="st2" d="M301.9,91.7c2.3,7.7,2.9,15.7,1.6,23.7"/>
<path class="st3" d="M275.9,28.4c0.9,0.2,1.8,0.3,2.7,0.4c1.5,0.3,3,0.2,4.5-0.3c2.2-1,3.6-3.2,3.8-5.5c0.2-2.4-0.2-4.7-1-6.9
  c-0.8-2.2-1.4-4.5-1.7-6.8c-0.1-1.6,0.1-3.3-0.5-4.8C282.7,2.6,281,1.3,279,1c-4.5-1-8.3,1.3-11.4,4.4c-1.8,1.6-2.9,4-3,6.4
  c0,2.3,1.2,4.4,1.9,6.5s-0.4,9.1,0.8,9.1c1.2-0.3,2.4-0.5,3.6-0.4c1.3,0.4,4.5,0.7,5.1,1.8c0.4,0.7,0.2,2.3,0.3,3.1
  c0.1,1.2,0.1,2.3,0.1,3.5c0,2.3-0.1,4.7-0.3,7"/>
<path class="st3" d="M263.7,38.1c1,0.2,2.1,0.3,3.2,0.5c0.7,0.1,1.4,0.1,2-0.1c0.5-0.3,0.9-0.7,1.2-1.2c1-2,1.7-4.2,1.9-6.4
  c0.3-1.5,0.4-3.1,0.3-4.7c-0.1-1.6-0.9-3-2.2-4c-1.3-0.8-2.8-1.2-4.3-1c-0.5,0.1-1,0.3-1.4,0.5c-0.8,0.1-1.6,0-2.3-0.1
  c-0.9-0.2-1.9,0-2.7,0.6c-0.5,0.5-0.9,1.1-1.1,1.8c-0.7,2.4-1,4.9-1,7.4c-0.2,1.4,0,2.9,0.7,4.2c0.6,0.8,1.4,1.3,2.3,1.7
  c0.6,0.3,1.3,0.5,2,0.7c0.5,0.1,1.3,0.1,1.5,0.6c0.2,0.6,0.3,1.3,0.2,1.9c0,0.8-0.1,1.6-0.3,2.3"/>
</svg>
