<?xml version="1.0" encoding="utf-8"?>
<svg
  version="1.1"
  id="Layer_1"
  xmlns="http://www.w3.org/2000/svg"
  xmlns:xlink="http://www.w3.org/1999/xlink"
  x="0px"
  y="0px"
  width="512"
  height="144"
  viewBox="0 0 512 144"
  style="enable-background:new 0 0 512 144;"
  xml:space="preserve"
>
<style type="text/css">
  .st0{fill:none;stroke:#231F20;stroke-miterlimit:10;}
  .st1{fill:none;stroke:#231F20;stroke-width:2.13;stroke-miterlimit:10;}
  .st2{fill:none;stroke:#231F20;stroke-width:1.42;stroke-miterlimit:10;}
  .st3{fill:#FFFFFF;stroke:#231F20;stroke-width:1.42;stroke-miterlimit:10;}
</style>
<polyline class="st0" points="279.4,41.5 279.4,23.8 301.5,11.2 324.4,23.8 324.4,41.5 "/>
<path class="st0" d="M174,41.5V23.8l20.3-12.6c0,0,20.2,11,20.9,12.6c0.7,1.6,0,17.7,0,17.7"/>
<polyline class="st0" points="128.4,41.5 128.4,23.8 149.8,11.2 171.8,23.8 171.8,41.5 "/>
<path class="st0" d="M346.2,41.5V23.8c0,0,19.7-11.9,21.3-12.6s22,12.6,22,12.6v17.7"/>
<path class="st1" d="M0,138.4c47.1,1.3,94.5,2.5,141-3.3c29.5-3.7,58.2-10.2,87.4-15c92.9-15.6,188.7-15,283.6-13.2"/>
<path class="st0" d="M115.3,81.8c94.8,2.3,189.6,2.7,284.4,1.2"/>
<path class="st1" d="M399.7,46.3c-94.8-2.3-189.6-2.7-284.4-1.2"/>
<path class="st0" d="M114.9,63.9c88.1-3.1,196.7,0.5,285.1,0.2"/>
<path class="st0" d="M116.4,104.1c0,0,259-2.2,279.2-0.8"/>
<path class="st2" d="M223.2,34.6c0.6,2.1,0.8,4.2,0.8,6.4c0,0.4-0.1,0.9-0.3,1.2c-0.3,0.4-0.8,0.5-1.2,0.3v-4.5c0-1-0.6-1.8-0.6-2.7
  C222,34.6,222.9,33.3,223.2,34.6z"/>
<path class="st2" d="M227.1,34.6c0.6,2.1,0.8,4.2,0.8,6.4c0,0.4-0.1,0.9-0.3,1.2c-0.3,0.4-0.8,0.5-1.2,0.3v-4.5c0-1-0.6-1.8-0.6-2.7
  C225.9,34.6,226.7,33.3,227.1,34.6z"/>
<path class="st2" d="M408,95.4c0.6,2.1,0.8,4.2,0.8,6.4c0,0.4-0.1,0.9-0.3,1.2c-0.3,0.4-0.8,0.5-1.2,0.3v-4.5c0-1-0.6-1.8-0.6-2.7
  C406.7,95.5,407.6,94.1,408,95.4z"/>
<path class="st2" d="M126.4,127.9c0.6,2.1,0.8,4.2,0.8,6.4c0,0.4-0.1,0.9-0.3,1.2c-0.3,0.4-0.8,0.5-1.2,0.3v-4.5
  c0-1-0.6-1.8-0.6-2.7C125.2,127.9,126,126.5,126.4,127.9z"/>
<path class="st2" d="M96,130.5c0.6,2.1,0.8,4.2,0.8,6.4c0,0.4-0.1,0.9-0.3,1.2c-0.3,0.4-0.8,0.5-1.2,0.3v-4.5c0-1-0.6-1.8-0.6-2.7
  C94.8,130.5,95.6,129.1,96,130.5z"/>
<path class="st2" d="M103.8,130.5c0.6,2.1,0.8,4.2,0.8,6.4c0,0.4-0.1,0.9-0.3,1.2c-0.3,0.4-0.8,0.5-1.2,0.3v-4.5
  c0-1-0.6-1.8-0.6-2.7C102.6,130.5,103.4,129.1,103.8,130.5z"/>
<path class="st2" d="M31.3,77c-1,5.4-0.4,11,0.1,16.5l1.4,14.3c0,1.4,0.4,2.8,1.2,4c1.2,1.5,3.3,1.9,5.1,2.6
  c1.8,0.7,3.6,2.6,2.9,4.4c3.1,1.5,6.4-3.3,9.7-2.3c1.2,0.3,2,1.3,3.2,1.8c2.3,1,4.9-0.4,6.7-2.2c1.8-1.8,3.1-4,5.2-5.3
  c1.7-1,3.7-1.4,5.4-2.4c3.9-2.3,5.2-7.3,6.1-11.8c1.2-5,1.9-10.2,2.2-15.4c0.3-5.2-0.8-10.4-3.1-15c-1.9-3.2-4.2-6.1-7-8.5
  c-3.1-2.9-6.5-5.6-10.5-6.9c-6.6-2.2-13.8-0.5-17.7,5.2C37.5,62.5,32.8,68.9,31.3,77z"/>
<path class="st2" d="M57,119c-1.5,6.8,0.5,14-1.3,20.8"/>
<path class="st2" d="M424.9,83c0.9,0.2,1.9,0.2,2.9,0.1c3-0.4,5.7-1.9,7.7-4.1c2-2.2,3.7-4.7,4.9-7.4c3.2-6.1,5.8-12.5,7.9-19
  c0.6-1.4,0.7-3,0.4-4.5c-0.7-2.1-3.1-3.1-5-4.3c-6.7-4.4-9-12.3-16.7-15.5c-6.9-2.9-11.6,1-16.1,6.2c-2.6,3.1-6.2,7.1-5.7,11.4
  c0.2,1.9,1.2,3.6,1.5,5.4c0.5,2.8-0.5,5.5-0.7,8.3c-0.6,7.5,4.5,14.4,10.4,19.1c1.9,1.6,4.1,2.8,6.4,3.7c2.8,1.1,2.5,2.5,2.9,5.5
  c0.7,5.5,0.5,11-0.4,16.4"/>
<path class="st3" d="M331.2,108.8l-1-27.3c-0.1-1.6-0.7-4.4-0.1-5.9c0.6-1.5,2.1-1.4,3.4-1.8c3.5-1.3,6.7-3.2,9.5-5.7
  c3.1-2.7,5.3-6.3,6.3-10.2c1.2-5.4-0.6-11-0.2-16.5c0.4-4.8,2.5-9.6,1.9-14.4c-0.6-5.2-4.4-9.6-9.1-12c-4.5-2.2-11-3.4-16-2.3
  s-9.3,5.6-12.3,9.3c-2.9,3.9-5.5,8-7.6,12.4c-1.4,2.6-2.8,5.3-2.9,8.3c0,3.3,1.7,6.4,3.6,9.2c3.2,4.7,7,8.9,11.3,12.6
  c2.1,1.9,4.4,3.6,5.8,6.1c0.5,1.2,1.2,2.2,2.1,3.2c1.1,0.9,2.5,1.2,3.9,1"/>
<path class="st3" d="M284.6,41.5c-3.3-1-5,3-7.9,4.8c-3.2,2-6.5,4.2-8.2,7.6c-1.4,3-1.3,6.5-1,9.9c0.4,5,1,10,1.6,15
  c0.2,1.7,0.5,3.4,1.6,4.7c1.1,1.3,5,7.2,6.5,7.6c7.1,1.8,12-2.3,19.2-1.1c0.5,0.1,1.1,0.1,1.7,0c1.1-0.4,1.6-1.6,1.9-2.8
  c1.6-5.1,2.9-10.4,3.7-15.7c0.8-5.3,0.4-10.8-1.3-15.9c-1.2-3.2-3-6.3-3-9.8c0-1.7,0.4-3.7-0.7-5c-0.7-0.7-1.7-1.2-2.8-1.4
  c-4-0.8-8.2-0.2-11.8,1.6"/>
<path class="st2" d="M287.1,90.7c2.2,7.3,2.7,15,1.6,22.5"/>
<path class="st3" d="M262.3,30.5c0.8,0.2,1.7,0.3,2.5,0.4c1.4,0.3,2.9,0.2,4.3-0.3c2.1-1,3.4-3,3.6-5.3c0.1-2.2-0.2-4.5-1-6.6
  c-0.8-2.1-1.3-4.3-1.6-6.5c-0.1-1.5,0.1-3.1-0.5-4.5c-0.8-1.7-2.4-3-4.3-3.3c-4.3-1-7.9,1.3-10.9,4.2c-1.7,1.6-2.8,3.8-2.9,6.1
  c0,2.2,1.1,4.1,1.8,6.2c0.6,2.1-0.4,8.7,0.8,8.7c1.1-0.3,2.3-0.5,3.4-0.4c1.2,0.4,4.2,0.6,4.8,1.7c0.4,0.7,0.2,2.2,0.3,3
  c0.1,1.1,0.1,2.2,0.1,3.3c0,2.2-0.1,4.4-0.3,6.7"/>
<path class="st3" d="M250.7,39.7c1,0.2,2,0.3,3,0.4c0.6,0.1,1.3,0.1,1.9-0.1c0.5-0.3,0.9-0.7,1.1-1.2c1-1.9,1.6-4,1.8-6.1
  c0.3-1.5,0.4-3,0.2-4.4c-0.1-1.5-0.9-2.9-2.1-3.8c-1.2-0.8-2.7-1.1-4.1-1c-0.5,0.1-0.9,0.3-1.4,0.4c-0.7,0.1-1.5,0-2.2-0.1
  c-0.9-0.2-1.8,0-2.6,0.5c-0.5,0.5-0.9,1-1,1.7c-0.7,2.3-1,4.6-1,7c-0.2,1.4,0,2.8,0.7,4c0.6,0.7,1.3,1.3,2.2,1.6
  c0.6,0.3,1.3,0.5,1.9,0.7c0.5,0.1,1.2,0.1,1.5,0.5c0.2,0.6,0.3,1.2,0.2,1.8c0,0.8-0.1,1.5-0.3,2.2"/>
</svg>
