<?xml version="1.0" encoding="utf-8"?>
<svg version="1.1" xmlns="http://www.w3.org/2000/svg" xmlns:xlink="http://www.w3.org/1999/xlink" x="0px" y="0px"
   viewBox="0 0 532.2 158" style="enable-background:new 0 0 532.2 158;" xml:space="preserve">
<style type="text/css">
  .st0{fill:none;stroke:#2c2c29;stroke-width:0.5;stroke-miterlimit:10;}
</style>
<g>
  <path class="st0" d="M479,37.9c-4,3.7-12,6.9-13.1,12.2c-0.6,2.9-0.7,6.5-0.9,9.4c-0.3,4.4-1.7,8.4-1.6,12.8
    c0.2,5.3,4.3,10.2,6.5,15c2.7,5.8,4.5,11.6,8.9,16.2c3.3,3.5,16.3,6.1,21,5.1c3.7-0.7,5.6-2.6,7.8-5.6c4.6-6,8.1-12.5,10.7-19.5
    c2.2-5.9,3.7-10.2,3.8-16.5c0.2-8.1-0.8-17.4,0-26.2c0.5-5.4-1.7-9.5-4.4-14.2c-2.9-5.1-6.8-8.9-10.2-9.6c-1.2-0.2-4.1,0.8-9.2,4.6
    c-3.2,2.4-6.1,4.7-9,7.4C486.2,32.2,482.3,34.8,479,37.9z"/>
  <path class="st0" d="M505.1,47.7c0.2,0.2,0.6,0.2,0.9,0.1c3.8-0.7,6.3-2.1,9.6-2.9c0.5-0.1,1.3-0.1,1.8-0.2c0.2,0,0.5,0,0.7,0
    c0.3,0.1,0.8,0.2,1,0.4c0.6,0.4,1,0.9,1.3,0.7c0.3-0.2-0.1-0.5-0.2-0.6c-0.6-0.6-0.7-0.6-1.4-1c-1.2-0.5-2.7-0.3-4-0.1
    c-2.9,0.6-5.9,0.6-8.7,1.5c-0.3,0.1-0.8,0.4-1,0.7C504.9,46.8,504.9,47.5,505.1,47.7z"/>
  <path class="st0" d="M490.8,46.9c-0.2,0.2-0.8,0-1.1,0c-3.6-0.7-6.5-2.4-9.8-3.1c-0.5-0.1-1.3-0.1-1.8-0.1c-0.2,0-0.5,0-0.7,0
    c-0.3,0.1-0.8,0.2-1.1,0.4c-0.6,0.4-0.9,0.5-1.2,0.3c-0.3-0.2,0.8-0.9,1.6-1.2c1.3-0.6,2.8-0.3,4.1-0.1c3,0.6,6,1.1,8.9,2
    c0.3,0.1,1.1,0.4,1.3,0.7C491.1,46,491.1,46.5,490.8,46.9z"/>
  <path class="st0" d="M493.6,78.1c-0.3,0.1-0.5-0.4-0.4-0.7c0.2-0.3,0.5-0.4,0.8-0.5c2.1-0.4,4.2,0,6.4,0.3c0.7,0.1,1.4,0.2,2,0.1
    c0.6-0.1,1.2-0.4,1.9-0.5c0.6-0.2,2.1-0.6,2.2-0.1c0.1,0.5-1.3,1.3-2,1.6c-1.2,0.6-2.4,1.2-3.6,1.4c-1.8,0.3-3.5-0.2-5.2-0.8
    C494.7,78.6,494.6,78.6,493.6,78.1"/>
  <path class="st0" d="M487.9,27.1c-2.1,1.4-4,3-5.9,4.6c-3,2.5-5.2,3.8-8.4,6.2c-1.5,1.1-3.6,3.4-5.1,4.6c-0.9,0.8-2.8,2.1-3.9,1.4
    c-0.8-0.5-0.1-2.8,0.6-6c1.7-7.4,6.5-14.8,11.2-20.8c4.1-5.3,8.9-10.8,15.5-12.2c4.5-1,9.5,0.3,13.1,3.3c0.5,0.5,1,1,1.3,1.6
    c0.9,2.4-5.9,7.4-7.5,8.9C495.3,21.7,491.7,24.5,487.9,27.1z"/>
  <path class="st0" d="M498.5,111c0.8-0.1,1.8-0.4,2.2,0.3c0.2,0.4,0.2,0.9,0.1,1.3c-0.8,7.6-1,15.2-0.5,22.8c0,0.5,0.1,1-0.1,1.4
    c-0.2,0.6-0.9,1.1-1.5,1.4c-1.9,0.8-4.1,0.8-6,0c-1.7-0.8-3.1-2.2-4.3-3.7c-4-4.9-7.5-10.2-10.3-16c-0.6-1.2-3.2-8.8-2.1-10.5
    c1.3-2.1,8.5,1.1,9.4,1.4c2.7,0.9,5.4,1.6,8.2,1.8C495.2,111.2,497,111.2,498.5,111z"/>
  <path class="st0" d="M502,133.6c0,0.8,0,1.7,0.7,2.2c0.7,0.5,1.7,0.3,2.3-0.2c0.7-0.5,1-1.2,1.3-2c0.8-1.8,1.3-3.8,1.3-5.8
    s-0.4-4-1.5-5.7c-0.4-0.7-1.2-1.6-2.2-1.5c-1,0.1-1,1.3-1.1,2c-0.3,2.3-0.6,4.6-0.7,7C502.1,131,502,132.3,502,133.6z"/>
  <path class="st0" d="M504.5,113.5c1-0.4,2.3-0.1,3.3,0.2c4.6,1.5,8.7,4.3,12.3,7.4c2.6,2.2,5.1,4.7,6.7,7.7
    c1.5,2.9,2.2,6.1,2.8,9.3c0.9,4.7,1.7,9.4,2.3,14.1c0.1,0.8,0.2,1.6-0.2,2.4c-0.7,1.3-2.5,1.6-4,1.7c-4.6,0.2-9.2,0.5-13.8,0.8
    c-2.8,0.1-5.6,0.3-8.2-0.6c-4.2-1.4-6.9-5.2-9.4-8.7c-0.7-1-1.4-2.1-1.2-3.3c0.3-1.1,1.4-1.9,2.5-2.4c1.8-0.8,3.7-1.1,5.6-1.6
    c1.9-0.5,3.8-1.3,5-2.8c1.3-1.5,1.7-3.6,1.9-5.6c0.4-3,0.5-6-0.3-8.9c-0.5-1.7-1.5-3.4-2.8-4.7c-0.7-0.6-1.4-1.1-2.3-1.5
    c-0.5-0.3-1.3-0.5-1.5-1.1C503.1,115,503.7,113.9,504.5,113.5z"/>
  <path class="st0" d="M510.5,13.3c-0.1,0.8-0.1,1.7,0.1,2.3c0.2,0.5,0.5,1.2,0.9,1.7c0.3,0.5,0.8,0.9,1.2,1.2
    c2.4,1.7,4.2,4.2,5.6,6.9s2.5,5.4,3.8,8.1c0.1,0.2,0.4,0.5,0.6,0.4c0.1-0.1,0.1-0.1,0.1-0.2c0.5-1.6,0.4-3.3,0.2-4.9
    c-0.7-4.6-3-8.6-6-12.2c-1.2-1.4-2.4-2.7-3.9-3.8c-0.4-0.3-1-0.8-1.6-0.9C511,11.9,510.6,12.7,510.5,13.3z"/>
  <path class="st0" d="M488.1,3.6c-7.8,2-15.2,5.8-21,11.3c-7.5,7.1-11,17.4-14.2,27.2c-4.8,14.8-9.7,30.2-7.7,45.7
    c1,7.5,7.3,23,6.7,30.5c-0.4,5.4-0.4,21-9.8,11.9c-1.1-1-3.8-3.4-8.6-3.8c-3.2-0.3-4.1-3.6-4.8-5.9c-3.4-9.8-3.3-20.8,0.3-30.5
    c2.8-7.4,7.4-14,9.4-21.7c2.2-8.5,0.9-17.5,2.5-26c1.5-8.1,3.5-16.3,8.2-23c4.5-6.3,9.8-11.4,18.6-15.1c7.2-3,22.4-3.4,22.4-1.5
    C490.2,2.7,489.8,3.2,488.1,3.6z"/>
  <path class="st0" d="M465.3,31.4c-4.4,12.9-4.7,14.6-3.8,29c0.4,6.2-1.7,12.6,0.6,18.3c2.3,5.8,7.5,10,9.7,15.8
    c2.2,5.8,1.2,12.3,2.2,18.4c2.8,16.7,25.2,39,24.3,41.9c-1,3-23,2.3-35.5,0.9c-3-0.3-6.3-0.9-8.6-2.9c-2.3-2.1-3.1-5.3-3.3-8.3
    c-0.8-13,8.2-25.8,5.3-38.5c-1.3-6-5.1-11.1-7.1-16.9c-4.3-12.2-0.3-25.5,3.6-37.8c4.1-12.7,8.4-25.9,17.5-35.8
    c0,0,7.7-7.3,6.3-3.7C475.2,15.5,466.8,27,465.3,31.4z"/>
  <path class="st0" d="M409.4,150.6c2-4.5,5.2-9.3,8.3-13.1c2.7-3.2,5-5.2,8.6-7.3c1.9-1.1,5.5-1.4,7.7-1.4c3.1,0,6.2,1.6,8.3,3.9
    c2.1,2.3,3.5,5.3,4.2,8.3c0.8,3,1.1,6.2,1.3,9.3c0.1,1,0.2,2-0.2,2.8c-0.5,1-1.4,1.6-2.4,2.1c-2.9,1.3-6.3,1.3-9.5,1.2
    c-5.3-0.1-10,0.2-15.2,0.1c-2.4,0-8.9,0.4-10-0.3C408.3,154.8,408.6,152.3,409.4,150.6z"/>
  <path class="st0" d="M507.4,55.7c-0.1,0.7-0.1,1.4,0.2,2c0.3,0.5,0.8,0.8,1.3,1c0.7,0.2,1.5,0.2,2.1,0.1c1-0.2,1.8-1.1,1.9-2.1
    s-0.3-2-1.2-2.6C509.9,52.7,507.7,54,507.4,55.7z"/>
  <path class="st0" d="M483.9,56.3c0.2,0.7,0,1.8-0.4,2.3c-0.3,0.5-0.8,0.6-1.4,0.7c-0.7,0.2-1.5,0.3-2.2,0.1
    c-1.1-0.3-1.8-1.2-1.9-2.3c-0.1-1,0.5-2,1.4-2.6C481.3,53.3,483.4,54.2,483.9,56.3z"/>
  <path class="st0" d="M487.7,56.3c-0.9-0.7-1.9-1.1-2.9-1.6c-1-0.5-1.9-0.5-3-0.6c-1.5-0.1-3,0.4-4.3,1s-3.9,1.5-4,1.4
    s-0.2,0-0.3-0.3c0-0.1,0.8-0.5,1.8-1.1c1.6-1,3.9-2.2,5.8-2.3c0.8,0,1.9,0.1,2.7,0.3c0.7,0.2,1.6,0.6,2.2,0.9
    c1.2,0.6,2.4,1.5,3.3,2.5c0.2,0.2,0.9,0.8,0.7,1.4c-0.2,0.6-2.8,1.2-2.8,0.5c-0.1-0.6,1.6-0.6,1.7-1
    C488.7,56.8,487.9,56.5,487.7,56.3z"/>
  <path class="st0" d="M505.9,55.6c0.8-0.7,1.8-1.1,2.6-1.5c0.9-0.5,1.7-0.5,2.8-0.6c1.4-0.1,2.7,0.4,3.9,1c1.2,0.5,3.5,1.4,3.6,1.3
    s0.2,0,0.2-0.3c0-0.1-0.7-0.5-1.7-1c-1.5-0.9-3.5-2.1-5.3-2.2c-0.8,0-1.7,0.1-2.4,0.3c-0.6,0.2-1.5,0.5-2,0.9
    c-1.1,0.6-2.2,1.5-3,2.4c-0.2,0.2-0.8,0.8-0.6,1.3c0.1,0.5,2.5,1.1,2.6,0.5c0.1-0.5-1.5-0.6-1.5-1
    C504.9,56.1,505.6,55.8,505.9,55.6z"/>
  <path class="st0" d="M487,88.5c1.2,0.7,2.5,1,3.8,1.6c0.5,0.2,0.9,0.5,1.3,0.7c0.5,0.2,0.9,0.3,1.4,0.5c1.9,0.5,3.8,1,5.7,0.6
    c0.4-0.1,0.7-0.2,1.1-0.2c0.6-0.1,1.2,0,1.9,0c1.4-0.1,2.6-1,3.5-2s2.1-2.5,2-3c-0.1-0.5-2-0.1-3,0c-1.2,0.2-3.4,0.7-3.9,0.9
    c-0.3,0.1-0.6,0.1-0.9,0.1c-1.4,0-3.3-0.3-5.8,0.1C491.9,88.1,486.9,87.8,487,88.5"/>
  <g>
    <path class="st0" d="M198.3,48.6c-0.5,2.7-1.4,5.2-2.8,7.6c-1,1.7-2.3,3.3-3,5.1c-1,2.9-0.5,6,0.1,9c0.9,4.6,1.7,9.1,2.6,13.7
      c1,5.2,2,10.6,4.8,15.1c5,7.9,14.3,11.7,23.3,14.4c5.4,1.6,11.4,3,16.4,0.4c2.2-1.1,4-3,5.7-4.7c2.7-2.8,5.5-5.7,7.1-9.3
      c1-2.1,1.5-4.4,2.1-6.6c1.2-4.6,2.3-9.2,3.5-13.9c1-3.9,2-7.9,2-11.9c0-3.1-0.5-6.2-0.3-9.3c0.2-2.6,0.9-5.2,1.5-7.8
      c1.1-5.7,1.1-11.8-0.9-17.2c-0.5-1.3-1.1-2.6-2.2-3.5c-0.9-0.8-2.1-1.2-3.3-1.5c-5.1-1.4-10.4-1.8-15.6-2.2
      c-4.5-0.4-9-0.7-13.4,0.3c-5.6,1.2-10.5,4.5-14.7,8.4S198.2,47.6,198.3,48.6"/>
    <path class="st0" d="M181.5,55.1c-0.9,0.7-1.3,1.8-1.5,2.9c-0.5,2.2-0.4,4.5,0.2,6.7c0.4,1.3,1,2.6,1.5,3.9
      c1.7,3.7,3.5,7.6,6.8,9.9c0.7,0.5,1.6,0.9,2.3,0.4c0.7-0.4,0.7-1.3,0.7-2.1c-0.2-5.1-2.7-9.9-2.6-15c0-2,0-4.1-1.5-5.6
      C186,54.9,183.3,53.8,181.5,55.1z"/>
    <g>
      <path class="st0" d="M177.3,76.2c0.1,0.6,0.4,1.1,0.7,1.5c0.8,1.2,1.9,2.2,2.6,3.5c0.5,1,0.8,2.1,1.2,3.2c0.4,1.1,1,2.1,1.9,2.8
        c1,0.7,2.3,0.8,3.5,1.2c1.7,0.5,3.2,1.4,4.5,2.6c0.3,0.3,0.6,0.6,1,0.8s1,0.2,1.2-0.2s0.2-0.9,0.2-1.3c-0.3-1.2-0.7-2.4-1.2-3.6
        c-0.2-0.4-0.3-0.8-0.5-1.1c-0.7-1-1.8-1.5-2.9-2.1c-2.5-1.5-4.2-3.9-5.5-6.5c-0.8-1.6-2.1-6.4-4.8-5.2
        C177.8,72.4,177,74.8,177.3,76.2z"/>
      <path class="st0" d="M175.9,77.8c-0.8,0-1.5,0.5-2,1.1c-2.4,2.2-4.9,4.7-5.4,7.9c-0.2,1.4,0,2.9-0.5,4.2c-0.4,1.1-1.1,2-1.7,3
        c-1.4,2.1-2.3,4.8-1.3,7.1c0.5,1.1,1.3,2,2.2,2.7c3,2.5,6.9,3.7,9.9,6.1c1.4,1.1,2.7,2.4,4.4,2.7c1.7,0.2,3.3-0.6,4.7-1.6
        c1.2-0.8,2.3-1.7,3.4-2.6c1-0.9,1.9-1.8,2.5-2.9c0.7-1.3,0.9-2.8,1-4.3c0.1-2.3-0.1-4.5-0.6-6.7c0-0.2-0.1-0.4-0.2-0.6
        c-0.3-0.3-0.7-0.3-1.1-0.3c-1.6-0.1-3.1-1.1-4.3-2.2s-2.3-2.4-3.7-3.3c-0.9-0.6-2-0.9-2.8-1.7c-0.4-0.4-0.7-0.9-1-1.5
        C178.5,82.9,176.9,78.2,175.9,77.8"/>
      <path class="st0" d="M187.5,52.5c1,0.6,1.9,1.5,3,1.5c1.2,0,2-1.2,2.6-2.2c4.9-7.8,12-13.9,19-19.9c4.1-3.4,8.3-6.9,13.4-8.5
        c3.2-1,6.8-1.2,10.1-0.5c1.9,0.4,3.7,1.1,5.7,1.1c5,0.2,9.3-3.7,14.3-4c0.2-1.7,0.3-3.7-0.7-5c-0.6-0.8-1.5-1.3-2.5-1.8
        c-6.8-3.4-14.2-5.4-21.7-6c-8.2-0.6-16.6,0.5-23.9,4.4c-5,2.7-9.2,6.5-13.2,10.5c-2.8,2.8-5.5,5.8-7.2,9.4
        c-1.3,2.9-1.9,6.1-2.5,9.3c-0.4,2.4-1.6,5.5-1.3,7.9C182.9,51.2,185.7,51.4,187.5,52.5z"/>
      <path class="st0" d="M177.6,56.4c-0.4-0.2-0.8-3.9-0.6-5.9c0.3-5.4,0.6-10.9,2.2-16.1c1-3.2,2.4-6.3,3.8-9.3
        c1.9-4,3.8-8,6.7-11.4c4.1-4.8,10-7.9,16.1-9.7s12.5-2.2,18.9-2.5c2.7-0.1,5.5-0.2,8.2,0.4c5.3,1.2,11.7,5.3,16.3,8.1
        c0.5,0.3-0.7,0.8-1.3,0.2c-18.7-8.4-43.6-0.9-49.3,5.4c-3.9,4.4-7.4,6.1-10.5,11c-2.2,3.5-3.7,6.8-5,10.7
        c-1.2,3.5-1.8,7-1.4,10.7c0.1,1.6-0.4,2.9-1.5,4.2C179,53.5,178,56.6,177.6,56.4z"/>
      <path class="st0" d="M255,21.8c0.5-0.2,1.1-0.4,1.6-0.4c0.8,0,1.5,0.5,2,1.1c0.5,0.6,0.8,1.4,1,2.1c0.9,2.3,2.2,7,1.6,7.1
        c-0.6,0.1-1-2.3-1.8-3.2c-1.4-1.7-3.4-2.6-5.3-3.6c-0.8-0.4-1.7-0.8-2.6-1c-0.5-0.1-2.2,0.2-1.7-0.6c0.3-0.5,1.9-0.6,2.5-0.7
        C253.2,22.4,254.1,22.2,255,21.8z"/>
    </g>
    <path class="st0" d="M246.2,136.4c1.6,1.2,3.4,2.2,5.1,3.3c4.8,3.1,8.7,7.1,11.3,11.6c0.4,0.7,0.8,1.4,1.4,1.9
      c1,0.8,2.4,1,3.8,1.1c9.6,1.1,18.1,1.6,28.9,1.4c0.2,0,0.4,0,0.6-0.2c0.2-0.2,0.2-0.4,0.2-0.7c-0.6-4-3.7-7.4-7-10.3
      c-0.9-0.8-1.8-1.6-2.9-2.2c-1.7-1-3.8-1.5-5.8-2.1c-3.5-1-7-1.9-10.5-2.8c-5.7-1.5-11.5-3.1-16.9-5.3c-3.8-1.6-7.5-3.5-11.5-4.8
      c-1.2-0.4-3.7-1.5-4,0.2c-0.2,1.4,1.9,3.2,2.7,4.2C242.9,133.5,244.4,135.1,246.2,136.4z"/>
    <path class="st0" d="M162.2,135.9c-2.3,1.1-4.6,2.3-7,3.3c-4.2,1.8-8.5,3.4-12.9,4.6c-2.9,0.8-5.9,1.5-8.4,3.1
      c-2.5,1.6-4.5,4.5-4.2,7.5c1.3,1,3.1,0.9,4.7,1.1c2,0.3,4.2,0.5,6.2,0.5c1.2,0,3.8,0.1,5.5,0c10.4-0.5,20.3-0.1,30.7-0.6
      c2.4-0.1,4.8-0.2,7.1-0.8c0.1-1.6-0.9-3.1-2-4.4s-2.3-2.4-2.9-4c-0.6-1.4-1.8-3.5-1.8-5.1c0-2.9,0.5-5.5,1.8-7.9
      c0.9-1.8,2.8-3.1,3.8-4.8c0.3-0.5,1.1-1.7,0.7-2.2c-0.5-0.6-1.4-0.1-1.9,0.1c-4.2,1.9-8.3,4.1-12.4,6.1
      C166.8,133.6,164.5,134.8,162.2,135.9z"/>
    <path class="st0" d="M193.8,107.5c-1,2.1-3.2,3.5-5.2,4.7c-0.5,0.3-1,0.6-1.4,1.1c-0.3,0.4-0.4,1-0.5,1.5
      c-0.6,4.1,0.3,8.5-1.6,12.2c-1.3,2.5-3.6,4.3-5,6.8c-1.5,2.7-0.4,5.8,0.3,8.8c0.7,3,1.6,5.7,3.6,8.1c0.5,0.6,1.7,1.8,2.3,2.2
      c1.7,1.1,2.5,0.9,4.5,0.9c19.3,0.1,38.6,0.1,57.9,0.2c2,0,4.2,0,6.1-0.7c0.3-0.1,0.7-0.3,0.9-0.6c0.4-0.5,0.2-1.2-0.1-1.8
      c-1.7-4.3-4.8-8-8.8-10.4c-1.8-1.1-3.8-2-5.5-3.3c-2.8-2.2-4.5-5.7-5.1-9.2c-0.6-3.5,0.9-9.7,0.5-10.4s-4.8-0.1-5.2-0.1
      c-1.8,0-3.5-0.2-5.3-0.5c-3.5-0.5-7-1.5-10.3-2.8c-6.6-2.6-12.6-6.6-17.3-11.9c-0.9-1-2.8-4.2-3.6-1.5
      C194.4,103.2,194.8,105.4,193.8,107.5z"/>
    <path class="st0" d="M212.7,50.1c0.6-0.3,1.6-1,2.2-1.2c0.7-0.2,1.4-0.2,2.2-0.2c0.8,0,1.6,0,2.3,0.1c1,0.1,1.9,0.4,2.9,0.6
      c2.5,0.6,4.9,1.2,7.3,2c0.4,0.1,0.8,0.3,1,0.7c0.2,0.4,0,0.9-0.3,1.2c-0.5,0.5-1.1,0.6-1.8,0.6c-0.7,0-1.3-0.2-1.9-0.4
      c-1.5-0.5-2.9-1-4.3-1.7c-1.7-0.8-2.7-1.5-4.5-1.9C216,49.1,212.4,50.6,212.7,50.1"/>
    <path class="st0" d="M245.1,53.7c0.1,0.4,0.4,0.8,0.8,1s0.8,0.2,1.3,0.3c2.7,0.2,5.3-0.5,7.9-1.4c0.8-0.2,1.5-0.5,2.3-0.4
      c0.9,0.1,1.4,0.5,1.5,0.5c0.1-0.1,0-0.3-0.2-0.5c-0.9-1-2.5-1-3.9-1c-1.9,0.1-3.9,0.1-5.8,0.2C248,52.3,244.7,51.8,245.1,53.7z"/>
    <path class="st0" d="M224.2,93.2c-0.8-0.2-1-0.6-1.5-0.1c-0.3,0.3,0.5,1.6,0.9,1.8s0.9,0.4,1.3,0.5c0.9,0.3,1.7,0.8,2.6,1.3
      c2.2,1.1,4.7,1.6,7.2,1.6c0.6,0,1.2,0,1.8,0c0.5,0.1,1.6,0.1,2.1-0.1c1.4-0.4,1.8-0.4,2.9-1.1c0.5-0.3,0.9-0.6,1.4-0.9
      c0.3-0.2,0.5-0.4,0.7-0.6s1.9-1.5,1.6-2.1c-0.4-0.6-3.2,0.1-4,0.1c-1,0-2-0.5-3.1-0.5S236,93.3,235,93c-0.3-0.1-0.6-0.2-0.9-0.3
      c-0.4-0.1-0.7-0.1-1.1-0.2c-1.6-0.1-3.2,0.1-4.8,0.4C226.6,93.2,225.9,92.9,224.2,93.2"/>
    <path class="st0" d="M245.6,59.7c-0.3,0.3-0.5,0.4-0.7,0.7c-0.2,0.3-0.2,0.7-0.2,1c0,0.2,0.2,0.4,0.4,0.6c0.2,0.2,0.4,0.4,0.7,0.6
      c0.2,0.1,0.5,0.1,0.7,0.2c0.8,0.1,1.7,0.2,2.5-0.1c0.3-0.1,0.5-0.2,0.8-0.4c0.2-0.1,0.3-0.2,0.5-0.4c0.1-0.2,0.2-0.4,0.2-0.6
      c0-0.3,0-0.6-0.2-0.9c-0.2-0.5-0.7-0.8-1.3-1s-1.2-0.2-1.8-0.1c-0.2,0-0.5,0-0.7,0.1C246,59.5,245.8,59.5,245.6,59.7"/>
    <path class="st0" d="M216.9,58.1c-0.6,0.6-0.8,1.3-0.7,2s0.7,1.4,1.5,1.6c0.4,0.1,0.9,0.2,1.4,0.2c0.5,0,0.9,0.1,1.4,0
      c0.4-0.1,0.7-0.2,1-0.4c0.3-0.2,0.5-0.4,0.7-0.6c0.6-0.7,0.7-1.7,0.2-2.5C221.2,56.7,218.4,56.7,216.9,58.1z"/>
    <path class="st0" d="M215.3,59.3c0.3-0.2,1.5-1,1.6-1.1c0.3-0.2,1.2-1,1.5-1c0.3-0.1,0.5-0.1,0.8-0.1c0.7-0.1,1.4-0.1,2.1-0.1
      c0.4,0,0.6,0,1,0.1c0.8,0.1,1.6,0.5,2.1,1.1c0.5,0.6,0.9,1.3,1.1,2c0,0.1,0,0.2,0,0.2c0,0.2-0.4,0.3-0.5,0.5
      c0.1,0.3,0.5,0.4,0.8,0.4s0.6-0.2,0.8-0.3c0.1,0,0.2-0.1,0.2-0.2c0-0.1,0.1-0.2,0.1-0.3c0-0.3,0-0.5-0.1-0.8
      c-0.1-0.2-0.3-0.5-0.4-0.6c-0.5-0.6-0.9-1.3-1.5-1.9c-0.3-0.4-0.8-0.7-1.3-1c-0.5-0.3-1-0.4-1.6-0.6c-0.8-0.2-1.6-0.3-2.4-0.1
      c-1.5,0.3-3,1.1-4.1,2.1c-0.8,0.7-1.3,1.5-2.3,2.1c-0.2,0.1-2.2,1.2-2.2,1.4c0.1,0.3,2.3-0.6,2.5-0.7
      C214.1,59.9,214.7,59.6,215.3,59.3z"/>
    <path class="st0" d="M244.1,60c0.3-0.3,0.5-0.6,0.8-0.9c0.3-0.3,0.4-0.6,1-0.8c1.5-0.6,1.6-0.6,2.2-0.6c0.4-0.1,1.3,0.1,1.7,0.3
      c0.6,0.2,1.2,0.5,1.6,0.6c0.6,0.4,0.7,0.5,1.3,0.9c0.4,0.3,0.7,0.7,1,1.1c0.2,0.2,0.3,0.5,0.5,0.7c0.4,0.6,0.9,1.1,1.4,1.6
      c0.1,0.1,0.5,0.2,0.4,0.4c-0.1,0.1-0.3,0.1-0.4,0c-0.3-0.3-0.7-0.4-1.1-0.6c-0.5-0.3-0.8-0.7-1.3-1.1c-1.6-1.5-3.8-2.6-6-2.5
      c-1.1,0.1-1.8,0.8-2.1,1c-0.4,0.4-0.8,0.8-1.2,1.2c-0.1,0.1-0.2,0.2-0.1,0.3c0,0.2,0.4,0.3,0.5,0.5c-0.3,0.2-1.1,0.3-1.3,0
      c-0.1-0.3,0.4-1.1,0.4-1.2C243.4,60.6,243.8,60.3,244.1,60z"/>
    <path class="st0" d="M230.3,83.4c-0.3-0.3,0.1-0.6,0.2-0.7c0.8-0.5,1.8-0.6,2.8-0.5c0.5,0,0.9,0.1,1.3,0.3c0.8,0.4,1.3,1.1,2,1.5
      c0.9,0.4,1.9,0.2,2.8-0.1c0.9-0.3,1.8-0.8,2.7-0.9c0.3,0,0.6,0,0.9,0.1c0.2,0.2,0.4,0.6,0.2,0.8c-0.1,0.1-0.1,0.1-0.2,0.1
      c-1.3,0.6-2.6,1.3-4,1.6C236.6,86,232.5,84.3,230.3,83.4"/>
  </g>
  <g>
    <path class="st0" d="M66.5,11.1c0.9,3.8-1.8,7.5-4.8,10c-3,2.5-6.6,4.5-8.5,8c-1.7,3.1-1.8,6.7-1.9,10.2c-0.2,7.2-1,14.4-3,21.3
      c-2,6.9-5.3,13.5-10.3,18.7c-1.2,1.2-2.5,2.4-3.3,3.9s-1.1,3.5-0.1,4.9c0.9,1.2,2.4,1.8,3.9,2.2c2.9,0.9,5.9,1.6,8.9,2.2
      c0.6,1.9,0.8,3.9,0.6,5.8c0,0.6-0.2,1.3-0.6,1.8c-0.4,0.5-1,0.7-1.5,0.8c-5.3,1.7-11.4,2.6-16.1-0.3c-3.5-2.1-5.6-5.9-6.4-9.9
      s-0.3-8.1,0.6-12c1.4-5.8,3.7-11.4,7-16.5c2.3-3.6,5-6.9,6.9-10.8c2.4-4.7,3.4-10,4.2-15.2c0.9-6.2,1.8-12.9,6.2-17.2
      c4.4-4.3,11.5-5.6,14.3-11C63.3,7.8,66.8,10.3,66.5,11.1"/>
    <path class="st0" d="M11.4,149.8c4.8-2.5,9.6-5.1,14.4-7.6c6.1-3.2,12.5-6.7,16.1-12.6c0.6-1,1.2-2.1,2-3c0.8-0.9,2-1.6,3.2-1.5
      c0.8,7.1-2.1,14-4.9,20.5c-2,4.8-1.3,4.4-3.9,8.9c-0.1,0.2-0.7,1.8-1.2,2.3c-0.5,0.5-2.4,0.4-2.7,0.4c-8,0.3-14.6-0.1-22.6,0.2
      c-2.7,0.1-8.4,0.6-11.4-0.8c-2.1-1,4.1-3.8,5.6-4.3C7.9,151.7,9.7,150.8,11.4,149.8z"/>
    <path class="st0" d="M121.7,115.7c4.1,2.1,8.3,4.3,12.8,5.1c1.8,0.3,3.7,0.4,5.5,0.8c1.6,0.3,3.2,0.9,4.8,1.4
      c6.3,2.2,12.7,4.5,18.3,8.2c7.6,5.2,13.2,13.1,15.6,22c0.3,1.2,0.7,1.5-0.1,2.5c-0.5,0.6-1.5,0.9-2.3,1.1c-3,0.6-6,0.1-9.1,0.2
      c-2.8,0-7.1,0.5-9.8,0.5c-22.9,0-37.9-0.6-59.8,0.3c-3.5,0.1-9.6,0.8-11.8-0.8c-0.8-0.6-0.2-1,0.5-2.2c1.9-3.4,4.7-6.7,6.3-10.2
      c3.1-7.2,6.7-14.2,10.5-21c1.7-3.1,2.9-5.8,3.4-9.3c0.3-1.9,0.3-5.8,1.9-7.2c2.1-1.9,3.6,1.3,4.9,2.8
      C115.6,112.4,118.7,114.1,121.7,115.7z"/>
    <path class="st0" d="M36.5,82.9c-0.1,0.5,0.1,1.1,0.5,1.6s0.9,0.6,1.5,0.8c0.8,0.2,1.5,0.4,2.3,0.4c0.7,0,1.4,0,1.9-0.6
      c0.4-0.4,0.4-0.9,0.5-1.4c0.1-0.9,0.2-1.8,0.2-2.6c0-0.9-0.2-1.9-0.6-2.7C41.7,75.6,36.8,81.8,36.5,82.9z"/>
    <path class="st0" d="M73.1,12.1c0,0.1,0.1,0.1,0.1,0.2c1.1,2.1,3.5,3.3,5.9,3.8c2.4,0.5,5,0.4,7.4,0.8c5.8,0.9,11.1,4.2,14.4,9
      c2.2,3.2,3.5,7,6.1,9.9c1.9,2.1,4.4,3.5,6.5,5.3c7.1,6.3,9.1,16.5,10.2,25.9c0.4,3.3,0.7,6.6,0.4,9.9c-0.7,7.8-4.9,14.9-7.7,22.2
      c-0.4,1.1-2.6,3.2-2.3,4.4c0.3,1.2,3.6,1.9,4.8,1.4c0.5-0.2,0.6-1.3,0.9-1.8c6.9-9.9,8.4-22.6,8.4-34.6c0-2.7-0.1-5.5-0.8-8.1
      c-0.7-2.6-2-5-3.5-7.4c-2.5-4.2-4-8.4-7.1-12.2c-2.2-2.7-3.7-5.3-5.2-8.4c-0.8-1.7-1.6-3-2.1-4.8c-0.5-1.8-2-3.6-2.9-5.3
      c-0.9-1.6-2.8-3.2-4.1-4.5c-2-2.1-4.7-3.6-7.3-5c-1-0.6-2.1-1.1-3.2-1.4c-0.9-0.2-1.7-0.4-2.6-0.5c-5.2-0.7-10.5-1.4-15.8-0.7
      C73.6,10.3,72.1,10.6,73.1,12.1z"/>
    <path class="st0" d="M21.9,90.8c-0.4-1.5-1.9-2.5-3-3.7c-2.5-2.8-2.6-7.1-1.9-10.8c1.8-11,8.1-20.9,9.9-32
      c0.9-5.9,0.5-12,2.3-17.8c2.1-6.9,7.3-12.5,13-16.9c1.9-1.5,4-2.9,5.9-4.3c1.4-1,4.4-2,5.9-2c2.5,0,5.4,0.6,6.3,2.7
      c-2.9,6.9-11.5,9.4-16.1,15.3C39,28,40,37.5,36.8,45.3c-1.7,4-4.4,7.4-6.7,11.1C23.6,66.7,21.1,78.7,21.9,90.8z"/>
    <path class="st0" d="M67.3,4.6c0.6,0.4,1.2,0.7,1.6,1.3c0.3,0.4,0.5,0.8,0.8,1.2c1.1,1.4,3.2,1.4,5,1.3c3.3-0.2,6.6-0.5,10-0.4
      c3.3,0.2,6.7,0.8,9.6,2.4c1.3,0.7,3.6,1.7,4,0.9c0.4-0.8-6-5.2-9.5-6.8C84.9,2.7,80.7,1.8,76.5,1c-1.6-0.3-3.2-0.7-4.9-0.8
      c-2.5-0.3-5-0.1-7.5,0.4c-1.2,0.3-2.8,1-1.3,2C64.2,3.4,65.9,3.7,67.3,4.6z"/>
    <path class="st0" d="M53.8,34.2c-1.1,3.7-0.5,7.7-0.6,11.5C53,54.6,49.1,63,45.5,71.1c-1,2.3-2,4.7-2.1,7.2
      c-0.2,3.8,1.6,7.3,3.3,10.6c1.7,3.3,3.5,6.7,6.2,9.2c4.6,4.4,10.9,6.2,16.4,9.3c3.4,1.9,6.7,4.1,10.1,6c3.4,2,7.4,3.2,11.1,2.2
      c4.6-1.3,7.5-5.7,10-9.8c2.3-3.7,4.6-7.5,6.7-11.4c1.9-3.5,3.5-7.1,4.5-11c3.8-13.3,0.9-18.1-1.4-27.4c-0.6-2.5-0.4-10.6-1.4-13
      c-1.2-2.8-3.8-4.5-5.6-6.9c-2.4-3.2-3.8-6.5-6.2-9.7c-1.4-1.9-4-3.7-5.9-5c-4.8-3.5-12-3.5-17.8-2.8c-4.2,0.5-8.6,1.5-11.8,4.5
      C58.4,26.3,55,29.8,53.8,34.2z"/>
    <path class="st0" d="M50.1,126.4c0.2,4-2.2,11.5-3.8,15.5c-2.2,5.9-6.1,12.6-6.1,14s4.8,1.1,7.9,1.1c7,0,13.4,0.3,20.4,0.3
      c3.4,0,9.4-0.2,12.1-2.3c2-1.5,2.3-2.1,3.5-4.3c1.4-2.7,3.5-5.3,5.1-7.9c3.5-5.6,5.5-11,9-16.7c2-3.2,3.2-5.9,5.2-9.1
      c1.3-2.2,2.3-5.5,2.3-8c-1.5-0.4-3.1,0.4-4.2,1.4c-1.1,1-2,2.4-3,3.5c-3.8,4.2-10.4,5.5-15.5,2.9c-1.7-0.9-3.2-2.1-4.9-3.1
      c-4-2.4-16.9-8.8-21-10.3c-1.6-0.6-5.8-4.4-7-2.1c-0.7,1.2-0.4,6-0.4,7.4c0,2-0.1,3.9,0,5.9C49.7,118.6,49.8,122.5,50.1,126.4z"/>
    <path class="st0" d="M119.1,57.2c0.6,1.2,1.2,2.5,1.5,3.8c0.4,1.4,0.6,2.8,0.7,4.2c0.4,3.2,0.8,6.4,0.6,9.7
      c-0.2,4.1-1.4,8.2-2.5,12.2c-0.4,1.2-0.7,2.5-1.3,3.6c-0.7,1.3-1.6,2.4-2.3,3.6c-0.7,1.3-1.1,2.8-1.7,4.2c-0.4,1-0.9,2.1-1.5,3.1
      c-0.4,0.8-0.8,1.5-1.5,2c-1.1,0.6-2.5,0.2-3.7-0.2c-0.6-0.2-1.4-0.5-1.5-1.2c-0.1-0.5,0.1-0.9,0.4-1.3c0.4-0.7,0.9-1.5,1.3-2.2
      c2.4-4.1,4.9-8.3,6.5-12.9c2.3-6.7,2.6-14.1,0.9-21c-0.5-2.2-1.3-4.3-1.6-6.5c-0.3-1.9-0.2-3.9-0.3-5.8c-0.1-1.5-0.4-3.1-0.8-4.6
      c-0.2-0.7-1.5-2.9-0.2-2.9c1.1,0,1.9,2.1,2.4,2.9c0.8,1.4,1.6,2.8,2.3,4.3C117.6,53.9,118.3,55.5,119.1,57.2z"/>
    <g>
      <g>
        <g>
          <path class="st0" d="M68.6,56.9c-0.3,0.2-0.5,0.4-0.6,0.7c-0.3,0.6,0.2,1.4,0.8,1.7s1.6,0.6,2.3,0.6c0.8,0,1.3,0,2-0.2
            c0.1,0,0.3-0.1,0.3-0.1c0.1,0,0.2-0.2,0.2-0.3c0.2-0.5,0-1.9-0.3-2.3C72.3,54.9,70.4,55.5,68.6,56.9z"/>
        </g>
        <g>
          <path class="st0" d="M99.2,58.2c0.4,0.4,1.5,0.8,2.4,0.8c0.2,0,0.8-0.4,1-0.4c0.2-0.1,0.4-0.7,0.4-0.8
            C103.1,55.1,99.3,55.6,99.2,58.2z"/>
        </g>
        <g>
          <path class="st0" d="M63.3,59.3c-0.3,0.3,2.4,0,4.2-1.5c0.4-0.3,0.7-0.6,1-0.8c0.5-0.3,1-0.4,1.5-0.5c1-0.2,2-0.5,3.1-0.5
            c1,0,2.1,0.2,2.9,0.9c0.8,0.6,1.4,1.6,2.4,1.5c0.2-0.3,0.1-0.7-0.1-1s-0.5-0.5-0.8-0.7c-2-1.2-4.2-2.2-6.5-1.8
            c-3.3,0.6-5.5,3.5-7.5,4.1"/>
        </g>
        <g>
          <path class="st0" d="M98.1,56.6c0.5-0.3,0.9-0.6,1.4-0.9c0.5-0.3,1-0.6,1.5-0.8c1-0.3,2-0.2,3-0.1c0.8,0.1,1.5,0.2,2.2,0.5
            c0.8,0.4,1.5,1,2.3,1.5c0.8,0.5,2.2,0.6,2.2,0.8s-2.6,0.4-4-0.2c-0.6-0.2-1.1-0.5-1.7-0.8c-1.6-0.6-3.5-0.6-5,0.1
            c-0.7,0.3-1.2,1-1.9,1.2C96.8,58.4,97.5,57,98.1,56.6z"/>
        </g>
      </g>
    </g>
    <path class="st0" d="M101.8,48.8c1.3-1.3,2.9-1.9,4.7-2.4c1-0.3,1.9-0.9,2.9-1.1c-0.2-0.4-0.6-0.6-1-0.6c-0.4,0-0.8,0-1.2,0.1
      c-2.1,0.5-4.3,1-6.3,1.9c-1.2,0.6-3.3,1.8-3,3.5C98.2,52.2,101.3,49.3,101.8,48.8z"/>
    <path class="st0" d="M68.8,47.3c1.3,0.1,2.5,0.2,3.7,0.6c1.6,0.6,2.9,1.9,4.5,2.6c2.3,1,4.9,0.9,7.4,0.7c0-0.8-0.7-1.3-1.3-1.8
      c-3-2.2-6.7-3.1-10.4-3.7c-1.8-0.3-3.5-0.5-5.3-0.3c-1.3,0.1-2.6,0.6-3.7,1.3c-0.4,0.3-2.5,2.1-1.9,2.6c0.6,0.5,2.2-1,2.6-1.3
      C65.8,47.1,67.3,47.2,68.8,47.3z"/>
    <path class="st0" d="M72.4,88.1c2.9-0.1,5.7-0.5,8.5-1.3c0.8-0.2,1.5-0.5,2.3-0.6c0.8-0.2,1.5-0.3,2.3-0.3c1,0,2,0.2,3,0.2
      c0.8,0,1.6-0.2,2.4-0.2c2.7-0.2,5.3,0.9,7.8,2c0.1,0.1,0.3,0.1,0.4,0.3c0.1,0.1,0,0.3,0,0.4c-0.2,0.6-0.7,1-1.1,1.5
      c-1,1.1-1.7,2.3-2.6,3.4c-0.9,1.1-2.1,2.1-3.5,2.3c-0.9,0.1-1.8,0-2.7,0.1c-0.8,0.1-1.9,0.4-2.8,0.3c-1.9-0.1-2.7-0.6-3-0.9
      c-0.7-0.6-1.7-0.8-2.6-1.3c-0.2-0.1-4.1-2.6-4.2-2.9c0-0.3,3,0.9,3.2,1c0.4,0.1,1.4,0.7,1.7,0.7c2.5,0.2,5.1,0.1,7.6,0
      c2.5-0.2,5.2-0.6,6.6-2.7c0.1-0.2,0.2-0.4,0.3-0.5c0-0.1,0.1-0.2,0.1-0.3c0-0.2-0.3-0.3-0.5-0.3c-0.8-0.1-1.6-0.2-2.4-0.3
      c-0.7-0.1-1.5-0.2-2.2-0.1c-0.8,0.1-1.6,0.4-2.4,0.4c-0.8,0-1.7-0.2-2.5-0.4c-4.4-0.9-8.8,0.3-13.3,0.4c-0.2-0.4,0.3-0.8,0.7-0.7"
      />
    <path class="st0" d="M76.4,6.7c0.2,0.6,0.9,3.4,1.2,4c0.6,1.2,1.4,2,2.6,2.6c1.5,0.8,2.9,1.1,4.5,1.3c1.5,0.2,2.9,0,4.4-0.1
      c3.1-0.4,6.6-1,8.1-3.6c0.9-1.5,0.9-3.5,0-5c0.2-0.3,0.8-0.3,1.1,0c0.3,0.3,0.4,0.7,0.4,1.1c0.9,5.7,0.7,7.3,1.1,7.6
      s1.3,1,1.3,0.4c0-0.5,0.1-0.3,0-1.7c-0.1-1.7-0.1-1-0.3-2.7c-0.2-1.9-0.4-3.7-0.6-5.6c-0.1-0.8-0.2-1.5-0.6-2.1s-1.4-0.9-2-0.4
      l-0.8-0.1c-4.5-1-9.1-1.2-13.6-0.1c-1,0.2-2.1,0.5-3,1c-0.6,0.3-2.6,1.1-2.6,1.1s0,0-0.1,0 M96.5,8.9c-0.2,1.2-1.1,2.2-2.1,2.9
      c-1,0.7-2.2,1-3.3,1.4c-1.6,0.4-3.3,0.4-5,0.4c-0.9,0-2.7-0.1-3.7-0.6c-0.5-0.1-1-0.6-1.4-0.8c-0.8-0.5-1.4-1.3-1.9-2.2
      c-0.4-0.7-0.8-1.5-0.8-2.3c0-1.3,1-2.4,2.1-3c2-1.2,4.3-1.6,6.6-2c0.5-0.1,1-0.1,1.5-0.1c0.6,0,1.2,0.1,1.8,0.2
      c0.5,0.1,1,0.1,1.5,0.2c0.4,0,0.7,0.1,1,0.2c0.5,0.2,1,0.6,1.5,1c0.5,0.5,1.1,0.9,1.4,1.5c0.3,0.5,0.4,1,0.5,1.5
      C96.6,7.7,96.6,8.3,96.5,8.9z"/>
    <path class="st0" d="M77.4,4.3c-0.6,0-3.1-0.1-4.8,0.2c-2.2,0.4-4.8,1.4-4.8,1.4S64.3,5.3,63,5.2c-4.4-0.2-8,0.4-11.4,1.4
      s-6.1,1.8-9.3,2.8c-0.7,0.2-1.1,1.3-1.2,2c-1.4,11-1.4,25.6-0.7,25.6c0.6,0,1.6-3.7,1.6-4.1c0.3-10.1,0.7-9.1,0.6-19.1
      c0.7-0.4,1.6,0,2.2,0.6s0.8,1.4,1.2,2.1c1,1.8,3,3,5,3.5c2,0.5,4.2,0.3,6.2,0c4.6-0.8,9.1-1.7,12.4-5c0.7-0.7,1.6-2.5,1.6-3.6
      c0-0.8-0.8-3.9-0.8-3.9s1.8-0.9,3-1.1c1.5-0.3,2.9,0.4,2.9,0.4"/>
    <path class="st0" d="M67.6,13.3c-0.2,0.4-0.5,0.9-0.8,1.2c-0.4,0.4-0.9,0.7-1.4,1c-4.1,2.4-8.9,3.4-13.6,3c-1.1-0.1-2.4-0.5-3.3-1
      c-1.2-0.7-1.7-1.9-1.9-3.2c-0.1-0.8-0.2-1.6,0.1-2.4c0.2-0.5,0.4-0.9,0.8-1.3c1-1.2,2.5-2.1,4-2.7c1.5-0.6,3.1-0.9,4.7-1.2
      c0.8-0.2,1.6-0.3,2.4-0.4c1.4-0.1,2.8,0,4.1,0.2s2.8,0.5,3.8,1.4c0.5,0.5,1,1.1,1.3,1.7c0.2,0.4,0.4,0.8,0.5,1.2
      C68.4,11.7,68,12.5,67.6,13.3z"/>
    <path class="st0" d="M85.6,75.3c0.9-0.1,1.9-0.3,2.7,0c0.7,0.2,1.3,0.7,1.9,1c0.6,0.3,1.4,0.4,2.1,0.5c0.4,0,0.7,0,1,0
      c0.7-0.1,1.3-0.5,2-0.6c0.7-0.2,1.5-0.2,2,0.2c0.1,0.2,0.1,0.5-0.1,0.7c-0.1,0.1-0.2,0.1-0.3,0.2c-1.6,0.6-3.2,1.1-4.9,1.2
      c-1.7,0.1-3.4-0.2-4.8-1c-0.5-0.3-0.9-0.7-1.5-0.8c-0.3-0.1-0.7,0-1-0.1C83.9,76,85.1,75.4,85.6,75.3z"/>
  </g>
  <g>
    <path class="st0" d="M317.1,48.7c-0.8,1.8-1.4,3.6-2,5.4c-0.8,2.3-1.6,4.7-2.4,7c-0.5,1.5-1,3-1.2,4.6c-0.4,3.1-0.3,6.1,0.4,9.2
      c0.8,3.1,2.2,7.6,3.7,11.1c1.1,2.5,5.7,7.8,7.4,9.8c2.4,2.8,2.3,3.8,7.3,9.3c1.5,1.6,3.9,2.3,6,3.1c1.7,0.6,4.7,1,6.5,1.1
      c1.4,0,3.4,0.1,4.8-0.2c1.2-0.4,3.8-1,4.9-1.6c4.8-2.2,5.4-3.4,9.6-6.6c4.2-3.2,7.9-6.5,10-11.2c1.2-2.8,3.2-10.5,4.7-19
      c0.8-4.4,1.5-13.3,0.1-17.5c-0.7-2.1-1.9-4.1-3-6c-3.9-6.5-7.8-13-12.3-19.1c-0.9-1.2-1.9-2.5-3.2-3.4c-1.6-1.2-3.6-1.8-5.6-2.1
      c-6.4-1.1-13.2,0.5-18.5,4.1c-2,1.4-3.4,2.9-4.8,4.8c-2,2.6-4.3,4.8-6.3,7.4C320.8,41.9,318.7,45.2,317.1,48.7z"/>
    <path class="st0" d="M376.2,155c0.6,1.6,41.3-0.4,42.5-0.6s-1.1-4.4-1.5-5.5c-4.4-11.1-8.4-18.5-15.5-28.1
      c-2.5-3.4-7.6-7.5-11.8-8.1c-3-0.4-6,0.9-8.7,2.1c-12.5,5.6-25.2,11-38.7,13.4c-1.9,0.3-3.8,0.6-5.5,1.5c-3,1.5-4.7,4.6-6.4,7.5
      c-1.3,2.3-2.6,4.5-3.8,6.8c-2,3.6-7.6,10.4-6,11.1c0.5,0.2,1.4,0.1,1.6,0.1c15.8,0,44.5,0.6,46.8-0.2s12.2-15,20.2-20.4
      c0.9,1.6-0.3,3.6-1.4,5C383.8,144.7,375.6,153.4,376.2,155z"/>
    <path class="st0" d="M386.7,60.8c0,1.7-0.1,3.5-0.6,5.2c-0.5,1.5-1.2,0.9-2.4,1c-1.1,0.1-2.7,1-2.9-1.6c-0.3-2.9,0-3.6,0-6.5
      c0-2.3-0.5-10.8,3.5-9.1C387.4,51,386.7,57.9,386.7,60.8z"/>
    <g>
      <g>
        <g>
          <path class="st0" d="M354.9,9.5c1.7,0,2.8-1,2.2-4.6c-0.4-2.4-7.3-1.7-12.4-1.5c-4,0.2-10.1,1.6-13.6,3.6
            c-4.5,2.6-6.8,4.2-11,7.2c-2.9,2-6.5,7.8-8.7,10.6c-7.4,9.5-4.5,19.6-8.8,30.9c-1.8,4.5-4.6,8.6-5.9,13.2
            c-1.9,6.8-1.6,22.6-2.5,29.6c-1.1,8.4-6.8,12.1-7.3,20.6c-0.8,14.7,2.4,33.9,3.6,34.6c1.3,0.9,11.3,0.8,11.8,0.6
            c0.5-0.1,0.5-1.1,0.5-1.8c-0.3-6,1-10.9,2.1-16.8c0.7-3.7,2-7.9,3.2-11.5c4-12.2,1.9-26.1-1.8-38.4c-1.3-4.1-3-8.4-1.9-12.6
            c0.9-3.7,1.9-7.1,3.5-12.5c0,0,1.3-7.2,2.7-13.2s5.3-14.8,7.4-17.8s4.1-7.5,8.1-11.2c4-3.7,7.2-5.1,11.2-6.4s9.5-2.4,12.5-2.6
            C352.7,9.5,353.9,9.7,354.9,9.5"/>
        </g>
        <g>
          <path class="st0" d="M354.6,16.1c-2,3.5-8,2.6-11,3.4c-8.7,2.2-14.9,9.7-20.4,16.7c-3.2,4.1-6.5,8.3-8.5,13.1
            c-1.9,4.7-2.4,9.9-4.8,14.4c0,0-0.8,0.8-0.8-0.8s1.7-10.7,1.7-10.7l2.3-9.4c0,0,6.8-15.5,13.2-21.6c6.4-6.1,10.3-7.3,14.4-8.2
            s12.6-2.7,14-2.1C356.3,11.6,356.7,12.7,354.6,16.1"/>
        </g>
        <g>
          <path class="st0" d="M365.8,27.2c2.2,2.9,4.1,6,5.9,9.1c1.8,3.2,3.7,6.3,5.5,9.5c0.4,0.7,0.8,1.4,1.5,1.9s1.6,0.7,2.2,0.2
            c0.6-0.4,0.9-1.2,1-2c0.9-4.2,1.8-8.4,1.9-12.6s-0.7-8.6-3-12.3c-0.9-1.5-2.1-2.8-3.3-4.2c-1-1.1-1.9-2.2-2.9-3.3
            c-1-1.1-2-2.3-3.2-3.3c-2.1-1.7-4.3-3.2-6.8-4.2c-1.5-0.6-4.1-1.5-5.1-1.2S359,7.5,359,8.8c0.1,1.3,0.2,3.8-0.5,5.7
            c-0.6,1.4-1.2,3.3-0.5,4.9c0.6,1.4,2.7,2.5,3.8,3.5C363.2,24.2,364.5,25.7,365.8,27.2z"/>
        </g>
        <g>
          <path class="st0" d="M325.7,139.5c0.9-2,7.1-9.4,9.5-14.4c1.4-3,0.4-9.2-1.7-11.6c-2.7-3.1-8.2-9.6-10.7-12.8
            c-2-2.6-3.5-4.3-6.1-8c-2.3-3.3-4.5-7.1-5.5-11c-0.9-3.9-1.5-11.1-2.5-11.7c-1.1-0.5-2.9,2.1-2.8,5.5c0.2,6.7,3.2,17.5,5,23.9
            c1,3.8,1.2,5.8,1.6,9.1c0.3,2.9-0.1,5.9-0.8,8.7c-1.2,4.8-2.2,8.1-3.2,12.5c-0.3,1.4-1.2,4.3-1.6,5.7c-0.3,1.1-0.4,2.2-0.5,3.3
            c-0.3,2.5-0.9,5.1-1.2,7.6c-0.2,1.5-1.2,5.9-0.4,7.3c0.8,1.3,5.3,0.4,7.8,0.2c1.1-0.1,3,0.4,4.8,0c1.5-0.3,2.5-1.9,2.6-2.2
            c0.8-1.8,1.6-3.1,2.5-4.9C323.8,143.8,324.9,141.5,325.7,139.5z"/>
        </g>
        <g>
          <path class="st0" d="M389.8,42.2c0.4,1.8,1.1,3.7,1.1,5.5c0,4,0.8,8,1.4,12c0.2,1.5,0.5,2.9,0.9,4.3c0.5,1.6,1.2,3.2,1.8,4.8
            c4.9,13.6-3.7,27.2,7.1,42.6c1.3,1.8,0.6,6.3,0,6.4c-0.5,0.1-1.4-1.1-2.5-2.4c-5.2-5.6-9.2-5-15.9-8.8c-2-1.1-8.2-8.1-8.2-10.4
            c0-1,1.5-8.8,1.8-12.4c0.1-0.6,0.5-3.2,0.7-3.9c0.9-3,0.7-5.2,2.3-5.8c2.7-0.9,3.6,0.6,5.8-0.9c2.7-1.8,1.2-4.6,1.3-7.6
            c0.1-2.6,0.9-5.6,1-8.1c0-1.5,0.1-3-0.2-4.4c-0.7-3.2-4.1-5.4-3.9-8.7c0.1-1.3,0.4-8.1,2-8.5C387.9,35.6,389.5,41,389.8,42.2z"
            />
        </g>
      </g>
    </g>
    <path class="st0" d="M379.5,107.9c0.2,0.1,0.4,0.3,0.5,0.5c0.3,0.7-0.7,1.3-1.4,1.6c-7.9,3.7-12,6.9-21.3,11
      c-5.3,2.3-8.8,3.3-14.4,4.6c-0.5,0.1-3,0.4-3.3,0c-0.2-0.3-0.7-2-0.8-2.4c-0.2-2.2-0.8-6.2-0.9-6.6c-0.2-2.7-0.5-4.8,0.8-4.9
      c3.4-0.1,14.3,0,23.4-6.9c1.5-1.1,2.5-2.6,3.8-4c0.8-0.8,3.8-3.3,5.2-3.2c1.1,0.1,4,5,4.7,5.9
      C377.1,105.2,377.9,106.7,379.5,107.9z"/>
    <path class="st0" d="M382.2,68.4c-0.4,0.4-0.6,0.9-0.7,1.4c-0.2,0.7-0.2,1.4,0,2c0.2,0.7,0.7,1.2,1.3,1.5c0.3,0.1,0.6,0.1,0.9,0.1
      c0.3,0,0.7-0.1,1-0.2c1.1-0.4,1.7-1.7,1.6-2.8c0-0.2-0.1-0.4-0.2-0.6c-0.1-0.2-0.2-0.3-0.3-0.5C384.9,68.2,383.4,67.2,382.2,68.4z
      "/>
    <path class="st0" d="M354.9,55.3c-0.2,0.2-0.3,0.5-0.4,0.8c-0.1,0.2-0.1,0.5-0.1,0.7c0.1,0.8,0.7,1.5,1.4,1.7c0.8,0.3,2.5,0,2.7,0
      c0.2,0,0.6-0.2,0.8-0.4c0.4-0.3,0.6-0.8,0.6-1.3c-0.1-0.7-0.4-1.4-1-1.8C357.7,53.8,356,54.2,354.9,55.3z"/>
    <path class="st0" d="M350.7,58.3c-0.1-0.2,1.2-0.8,1.3-1c1.3-1.1,1.8-1.7,3.5-2.6c0.6-0.3,1.2-0.5,1.9-0.5c1.3,0,2.5,0.7,3.6,1.3
      c2.5,1.5,5.3,1.5,5.4,1.3c0.1-0.2,0.2-0.2-0.2-0.3c-0.6-0.2-0.7-0.3-1.1-0.5c-0.4-0.2-1-0.5-1.3-0.8c-1.4-1-3-1.8-4.7-2
      c-1.7-0.2-2.5,0.1-4.2,0.7c-1.2,0.4-2.2,1.8-2.8,2.2c-0.7,0.5-1.1,0.7-1.8,1.3c-0.4,0.4-0.8,0.8-0.7,1.3c0.1,0.4,0.4,0.4,0.7,0.4
      c0.4,0,0.7,0,0.8-0.4C351.4,58.3,350.9,58.7,350.7,58.3z"/>
    <g>
      <g>
        <g>
          <path class="st0" d="M326.9,56.8c0.2,0.2,0.4,0.4,0.5,0.7c0.1,0.2,0.2,0.4,0.2,0.7c0,0.7-0.4,1.4-1,1.8
            c-0.7,0.4-2.3,0.4-2.5,0.4c-0.2,0-0.6-0.1-0.8-0.3c-0.4-0.2-0.7-0.7-0.7-1.1c0-0.7,0.2-1.3,0.6-1.8
            C324.2,55.8,325.7,55.9,326.9,56.8z"/>
        </g>
        <g>
          <path class="st0" d="M331.3,58.9c0.1-0.2-1.2-0.6-1.4-0.7c-1.4-0.9-2-1.3-3.6-1.9c-0.6-0.2-1.2-0.2-1.8-0.1
            c-1.2,0.2-2.2,1-3.2,1.7c-2.1,1.8-4.7,2.2-4.8,2s-0.2-0.2,0.1-0.3c0.5-0.3,0.6-0.4,0.9-0.6c0.3-0.3,0.8-0.6,1.1-0.9
            c1.2-1.1,2.5-2.1,4-2.6s2.3-0.3,4,0c1.2,0.2,2.3,1.4,2.9,1.6c0.8,0.4,1.2,0.5,1.8,0.9c0.4,0.3,0.9,0.6,0.8,1.1
            c-0.1,0.4-0.3,0.5-0.6,0.5c-0.3,0.1-0.7,0.1-0.8-0.2C330.7,59,331.1,59.3,331.3,58.9z"/>
        </g>
      </g>
    </g>
    <path class="st0" d="M341.6,73.8c0.4-0.1,0.9-0.2,1.2,0.1c0.2,0.2,0.2,0.6,0,0.8c-0.2,0.2-0.5,0.4-0.7,0.5
      c-1.3,0.5-2.8,1.2-4.2,1.3c-1.3,0-2.6-0.5-3.8-1.2c-0.7-0.4-1.4-0.9-0.6-1.5c0.9-0.6,3.5,1,4.5,1.1
      C339.3,75,340.3,74.2,341.6,73.8z"/>
    <path class="st0" d="M337.8,83.3c1.3-0.1,2.7,0.3,4,0.2c1-0.1,1.9-0.5,2.9-0.6c2.9-0.3,5.2,1,7.6,1c1.6,0,3.6,0.2,3.7,0.5
      c0,0.3-3.6,3.4-4.1,3.7c-1.3,0.9-1.7,1.7-3.3,2.8c-0.9,0.6-1.6,1.5-2.7,1.8c-1.1,0.3-2.8,0.4-3.9,0.4c-2.3,0-4,0.2-6.3,0.3
      c-2.3,0.1-5-1.8-6.2-3.6c3.5-0.2,7.2,0.9,10.7,0.7c0.5,0,1-0.1,1.5-0.2c0.4-0.1,0.8-0.2,1.2-0.4c1.4-0.4,3-0.5,4.3-1.1
      c0.8-0.3,1.6-0.8,2.4-1.3c1.4-0.9,1.7-1.4,1.7-1.6c0-0.2-2.7-0.9-4-0.8c-1.2,0-2.3-0.1-3.5,0.1c-1.5,0.2-2.1,0.4-3.6,0.5
      c-1.1,0.1-2.3-0.1-3.4-0.1c-2,0-4,0.7-6,1.2c-0.7,0.2-4.6,0.8-3.3-0.4c0.4-0.4,3.6-1.1,4.5-1.5C333.7,84.3,335.9,83.4,337.8,83.3z
      "/>
    <path class="st0" d="M348.1,47.2c2.8-0.3,5.7-0.6,8.4-1.3c2.8-0.7,5.7-1.1,8.4-0.4c0.5,0.1,1.1,0.4,1.1,1c-4.1-2-10.2,0.4-15,2.2
      c-0.8,0.3-1.6,0.6-2.4,0.6c-0.8,0-1.7-0.4-2-1.2C346.6,48.1,345.7,47.5,348.1,47.2z"/>
    <path class="st0" d="M329.8,50.2c0.3-0.4,0-1-0.7-1.3c-0.6-0.3-1.5-0.3-2.3-0.3c-1.9-0.2-3.7-0.3-5.6-0.1c-0.5,0.1-3.2,1-2.3,1.2
      c0.2,0,2-0.5,2.5-0.5c1,0,1.8,0.4,2.7,0.5C324.8,49.8,329.5,50.7,329.8,50.2z"/>
  </g>
</g>
</svg>
